<?xml version="1.0" encoding="utf-8"?>
<!-- Generator: Adobe Illustrator 22.0.1, SVG Export Plug-In . SVG Version: 6.00 Build 0)  -->
<svg version="1.1" id="Layer_1" xmlns="http://www.w3.org/2000/svg" xmlns:xlink="http://www.w3.org/1999/xlink" x="0px" y="0px"
	 viewBox="0 0 703 182" style="enable-background:new 0 0 703 182;" xml:space="preserve">
<style type="text/css">
	.st0{fill:#00B2A5;}
</style>
<g>
	<g id="SPRD_Logo_Horizontal_Light">
		<g id="Group_1194" transform="translate(5108.884 -5600)">
			<path id="Path_633" class="st0" d="M-5014.5,5662.3l-21.3-21.3l-39.5,39.5l0,0l60.8,60.8l0,0l60.8-60.8l-39.5-39.5
				L-5014.5,5662.3z M-5014.5,5723.1l-42.6-42.6l21.3-21.3l21.3,21.3l0,0l21.2-21.2l21.3,21.3L-5014.5,5723.1z"/>
			<path id="Path_634" class="st0" d="M-4899.8,5683.7c-0.2-2-1.1-3.8-2.6-5c-1.4-1-3.5-1.6-6.4-1.6c-2.1-0.1-4.2,0.2-6.2,1
				c-1.3,0.5-2.2,1.9-2.1,3.3c0,1.4,0.8,2.7,2.1,3.2c1.9,1,3.9,1.8,6.1,2.3c4.3,1.2,8,2.2,11,3.1c2.5,0.6,4.9,1.7,7.2,3
				c1.7,1,3,2.5,3.9,4.3c0.9,2.2,1.3,4.6,1.2,7c0,4.4-2,8.5-5.6,11.1c-3.7,2.9-9.3,4.4-16.6,4.4c-3.3,0-6.6-0.4-9.8-1.2
				c-2.7-0.7-5.2-1.9-7.5-3.5c-2-1.4-3.6-3.3-4.8-5.5c-1.1-2.2-1.7-4.7-1.8-7.2h13.6c-0.1,2.2,1,4.3,2.8,5.5c2.2,1.4,4.7,2,7.3,1.9
				c2.2,0.1,4.4-0.3,6.5-1.2c1.6-0.5,2.7-1.9,2.7-3.6c0.1-1.6-0.6-3.1-2-4c-1.9-1-3.9-1.7-6.1-2.1c-4-0.8-7.9-2-11.8-3.4
				c-2.5-0.9-4.9-2.2-6.9-3.9c-1.5-1.2-2.7-2.8-3.3-4.7c-0.6-1.8-0.9-3.8-0.9-5.7c0-1.9,0.4-3.7,1.2-5.4c0.8-1.8,2.1-3.3,3.7-4.5
				c2-1.4,4.2-2.5,6.6-3.1c3.3-0.8,6.6-1.2,10-1.2c7.2,0,12.4,1.5,15.8,4.4c3.3,2.9,5.1,6.9,5.5,12.1L-4899.8,5683.7L-4899.8,5683.7
				z M-4810.9,5718.5v-26c0-8.1,4-12.1,12.1-12.1c1.2,0,2.4,0.1,3.7,0.3v-13.5h-1.7c-1.4,0-2.7,0.1-4,0.2c-1.3,0.1-2.6,0.5-3.8,1
				c-1.3,0.5-2.6,1.3-3.7,2.2c-1.3,1.1-2.5,2.5-3.4,4v-6h-12.4v50L-4810.9,5718.5z M-4778,5688.6c0.1-3,1.3-5.9,3.3-8.1
				c1.8-1.9,4.3-2.9,6.8-2.9c1.3,0,2.6,0.2,3.8,0.7c1.2,0.4,2.3,1.1,3.2,2c1,1,1.8,2.2,2.3,3.4c0.6,1.5,0.9,3.2,1,4.8L-4778,5688.6
				L-4778,5688.6z M-4743.9,5697c0-10-2-17.4-6-22.4s-9.8-7.4-17.5-7.4c-3.5-0.1-7,0.5-10.3,1.8c-2.9,1.1-5.5,2.8-7.6,5.1
				c-2.1,2.3-3.7,5-4.7,8c-1.1,3.4-1.7,6.9-1.6,10.5c0,18.2,8.3,27.2,25,27.2c4.9,0.1,9.8-1.3,13.8-4.2c4-2.9,6.8-7.1,8.1-11.9
				h-13.6c-0.5,1.7-1.6,3.2-3.2,4.1c-1.7,1-3.7,1.5-5.7,1.5c-3,0.1-5.9-1.1-7.9-3.3c-2.1-2.5-3.3-5.7-3.3-9L-4743.9,5697
				L-4743.9,5697z M-4708,5699.5c0,1.5-0.3,2.9-1,4.2c-0.6,1.3-1.5,2.5-2.5,3.4c-1.1,1-2.4,1.8-3.8,2.3c-1.5,0.6-3.1,0.9-4.7,0.9
				c-4.3,0-6.4-1.9-6.4-5.6c-0.1-1.9,0.7-3.8,2.1-5c1.4-1.1,4-2.1,7.8-2.8c2.4-0.5,4.3-0.9,5.6-1.3c1.1-0.3,2.1-0.9,2.9-1.6
				L-4708,5699.5z M-4694.7,5718.5v-31.6c0-2.8-0.3-5.7-1.1-8.4c-0.7-2.3-1.9-4.5-3.6-6.2c-1.9-1.8-4.1-3.1-6.6-3.8
				c-3.3-0.9-6.6-1.4-10-1.3c-3.4-0.1-6.9,0.4-10.2,1.3c-2.5,0.7-4.8,1.9-6.7,3.6c-1.7,1.5-3,3.4-3.8,5.6c-0.8,2.3-1.2,4.7-1.3,7.1
				h12.3c0.2-2,1.1-3.9,2.5-5.4c1.3-1.4,3.5-2,6.6-2c2.1-0.1,4.3,0.4,6.2,1.4c1.4,0.7,2.3,2.2,2.3,3.8c0.1,1.5-0.5,2.9-1.7,3.8
				c-1.1,0.8-3.4,1.4-6.7,1.9c-3.3,0.5-6.4,1-9.2,1.6c-2.5,0.5-5,1.4-7.3,2.7c-2,1.2-3.7,2.9-4.8,5c-1.3,2.7-1.9,5.6-1.7,8.6
				c-0.1,3.7,1.3,7.3,4,9.9c2.7,2.5,6.9,3.8,12.6,3.8c3.1,0.1,6.1-0.5,8.9-1.6c2.4-0.9,4.5-2.3,6.2-4.2c0.1,1.5,0.4,3,0.8,4.5
				L-4694.7,5718.5L-4694.7,5718.5z M-4663.7,5709.1c-3.2,0-6.3-1.5-8.1-4.2c-2.1-2.8-3.1-6.5-3.1-10.9c0-10.3,3.8-15.4,11.4-15.5
				c7.4,0,11.1,5.4,11.1,16.2c0,4.3-1.1,7.7-3.2,10.4C-4657.6,5707.6-4660.6,5709.1-4663.7,5709.1 M-4640.1,5718.5v-68.3h-13v24.8
				c-3.7-5.2-8.7-7.8-14.8-7.8c-3-0.1-6,0.6-8.7,1.9c-2.5,1.3-4.8,3.1-6.5,5.3c-1.8,2.5-3.2,5.2-4,8.2c-1,3.4-1.4,6.9-1.4,10.4
				c-0.1,3.8,0.5,7.6,1.6,11.3c0.9,3.1,2.5,5.9,4.5,8.4c1.8,2.3,4.2,4.1,6.8,5.3c2.7,1.2,5.7,1.9,8.7,1.8c6.2,0,10.9-2.5,13.9-7.4
				l0.1,6.1L-4640.1,5718.5L-4640.1,5718.5z M-4855.6,5678c3.2,0,6.3,1.5,8.1,4.2c2.1,2.8,3.1,6.5,3.1,10.9
				c0,10.3-3.8,15.4-11.4,15.5c-7.4,0-11.1-5.4-11.1-16.2c0-4.3,1.1-7.7,3.2-10.4C-4861.7,5679.4-4858.7,5678-4855.6,5678
				 M-4879.2,5668.5v68.3h13V5712c3.7,5.2,8.7,7.8,14.8,7.8c3,0.1,6-0.6,8.7-1.9c2.5-1.3,4.8-3.1,6.5-5.3c1.8-2.5,3.2-5.2,4-8.2
				c1-3.4,1.4-6.9,1.4-10.4c0.1-3.8-0.5-7.6-1.6-11.3c-0.9-3.1-2.5-5.9-4.5-8.4c-1.8-2.3-4.2-4.1-6.8-5.3c-2.7-1.2-5.7-1.9-8.7-1.8
				c-6.2,0-10.9,2.5-13.9,7.4l-0.1-6.1L-4879.2,5668.5L-4879.2,5668.5z M-4589.7,5683.7c-0.3-5.1-2.2-9.2-5.5-12.1
				c-3.3-2.9-8.6-4.4-15.8-4.4c-3.4-0.1-6.7,0.3-10,1.2c-2.4,0.6-4.6,1.7-6.6,3.1c-1.6,1.2-2.9,2.7-3.7,4.5
				c-0.8,1.7-1.2,3.5-1.2,5.4c0,1.9,0.3,3.9,0.9,5.7c0.7,1.8,1.8,3.5,3.3,4.7c2.1,1.7,4.4,3,6.9,3.9c3.8,1.4,7.8,2.6,11.8,3.4
				c2.1,0.4,4.2,1.1,6.1,2.1c1.3,0.9,2.1,2.4,2,4c0,1.7-1.1,3.1-2.7,3.6c-2,0.8-4.3,1.2-6.5,1.2c-2.6,0.1-5.1-0.6-7.3-1.9
				c-1.8-1.2-2.9-3.3-2.8-5.5h-13.6c0,5,2.5,9.7,6.6,12.6c2.3,1.6,4.8,2.8,7.5,3.5c3.2,0.9,6.5,1.3,9.8,1.2c7.3,0,12.8-1.5,16.6-4.4
				c3.6-2.6,5.6-6.7,5.6-11.1c0.1-2.4-0.3-4.7-1.2-6.9c-0.8-1.8-2.2-3.3-3.9-4.3c-2.2-1.3-4.6-2.3-7.2-3c-3-0.8-6.6-1.9-11-3.1
				c-2.1-0.5-4.1-1.3-6.1-2.3c-1.3-0.6-2.1-1.9-2.1-3.2c-0.1-1.4,0.8-2.8,2.1-3.3c2-0.7,4.1-1.1,6.2-1c2.8,0,5,0.5,6.4,1.6
				c1.5,1.3,2.4,3.1,2.6,5L-4589.7,5683.7L-4589.7,5683.7z M-4536.6,5718.5v-35.4c0-5-1.6-8.9-4.8-11.7s-7.4-4.2-12.5-4.2
				c-3.2,0-6.3,0.8-9.1,2.2c-1.2,0.7-2.4,1.5-3.4,2.5c-0.9,0.9-1.7,1.9-2.2,3.1v-24.8h-13.2v68.3h13.2v-28.7c0-1.6,0.2-3.2,0.7-4.7
				c0.4-1.4,1.1-2.7,2-3.9c0.9-1.1,2-2,3.2-2.6c1.4-0.7,2.9-1,4.4-1c3,0,5.2,0.7,6.6,2.1c1.3,1.4,2,4,2,7.8v31H-4536.6z
				 M-4492.8,5718.5v-26c0-8.1,4-12.1,12.1-12.1c1.2,0,2.4,0.1,3.7,0.3v-13.5h-1.7c-1.4,0-2.7,0.1-4,0.2c-1.3,0.1-2.6,0.5-3.8,1
				c-1.3,0.5-2.6,1.3-3.7,2.2c-1.3,1.1-2.5,2.5-3.4,4v-6h-12.4v50L-4492.8,5718.5z M-4445.6,5708.4h-5.3c-2.7,0-4.7-0.9-5.9-2.6
				c-1.3-2.2-1.9-4.8-1.8-7.4V5679h9.9v-11.3h-9.9v-17.3h-13v49.4c0,2.6,0.4,5.2,1.1,7.7c0.7,2.4,1.9,4.6,3.6,6.4
				c1.8,1.9,3.9,3.4,6.4,4.4c3,1.2,6.2,1.7,9.4,1.6h5.5L-4445.6,5708.4z M-4528,5718.5h13.2v-50h-13.2V5718.5z M-4528,5650.2h13.2
				v12.3h-13.2V5650.2z"/>
		</g>
	</g>
</g>
</svg>
